<?xml version="1.0" encoding="UTF-8"?>
<svg version="1.1" xmlns="http://www.w3.org/2000/svg" width="2087" height="744">
<path d="M0 0 C0 183.15 0 366.3 0 555 C-61.495 575.49833333 -61.495 575.49833333 -89.05859375 584.421875 C-97.33924059 587.10929825 -105.59571288 589.86643436 -113.84765625 592.640625 C-115.60789124 593.23150406 -115.60789124 593.23150406 -117.40368652 593.83432007 C-123.1732439 595.77148163 -128.94059645 597.71480214 -134.70458984 599.66845703 C-136.79125849 600.37036295 -138.87800581 601.07203506 -140.96484375 601.7734375 C-141.92310562 602.10079895 -142.88136749 602.4281604 -143.8686676 602.76544189 C-144.75239548 603.06118103 -145.63612335 603.35692017 -146.54663086 603.66162109 C-147.31406113 603.9213974 -148.08149139 604.18117371 -148.87217712 604.44882202 C-151 605 -151 605 -155 605 C-155 578.6 -155 552.2 -155 525 C-142.99625 521.04 -130.9925 517.08 -118.625 513 C-114.83209473 511.74703125 -111.03918945 510.4940625 -107.13134766 509.203125 C-102.5065918 507.6796875 -102.5065918 507.6796875 -100.34286499 506.96777344 C-98.82842632 506.46886458 -97.31437511 505.96877865 -95.80062866 505.46777344 C-93.51072436 504.71013435 -91.21962718 503.95621257 -88.92822266 503.203125 C-88.25152842 502.9782843 -87.57483418 502.7534436 -86.87763405 502.52178955 C-82.22805267 501 -82.22805267 501 -80 501 C-80 344.25 -80 187.5 -80 26 C-68.12 22.04 -56.24 18.08 -44 14 C-39.83117187 12.60265625 -35.66234375 11.2053125 -31.3671875 9.765625 C-26.00390625 7.96875 -26.00390625 7.96875 -23.44970703 7.11328125 C-21.67203922 6.51724167 -19.89471657 5.92017203 -18.11767578 5.32226562 C-15.45175839 4.42563767 -12.784615 3.53274867 -10.1171875 2.640625 C-9.3217453 2.37203674 -8.5263031 2.10344849 -7.70675659 1.82672119 C-2.22773538 0 -2.22773538 0 0 0 Z " fill="#FFA400" transform="translate(652,116)"/>
<path d="M0 0 C0 26.4 0 52.8 0 80 C-17.758125 85.94 -17.758125 85.94 -35.875 92 C-39.61569824 93.25296875 -43.35639648 94.5059375 -47.21044922 95.796875 C-51.77172852 97.3203125 -51.77172852 97.3203125 -53.90579224 98.03222656 C-55.39940666 98.53112326 -56.89262386 99.03121011 -58.38552856 99.53222656 C-60.64395684 100.28989661 -62.90360786 101.04380725 -65.16357422 101.796875 C-66.16456304 102.13413605 -66.16456304 102.13413605 -67.18577385 102.47821045 C-71.77194733 104 -71.77194733 104 -74 104 C-74 260.75 -74 417.5 -74 579 C-146 603 -146 603 -154 605 C-154 421.85 -154 238.7 -154 50 C-142.12 46.04 -130.24 42.08 -118 38 C-110.5668984 35.51933063 -103.13385687 33.0384869 -95.70108223 30.55683899 C-89.07413143 28.34455434 -82.44674143 26.13358565 -75.81938267 23.9225235 C-70.07341915 22.00544514 -64.32765171 20.08778282 -58.58227539 18.16894531 C-52.90668688 16.27344695 -47.23060323 14.3794382 -41.55418205 12.48643494 C-39.42398405 11.77575948 -37.29396022 11.06456174 -35.16412544 10.35279846 C-4.18225983 0 -4.18225983 0 0 0 Z " fill="#EC4638" transform="translate(171,15)"/>
<path d="M0 0 C45.83103877 -1.04200595 91.41445961 8.85704143 125.63769531 41.06201172 C133.70490293 48.83023788 140.08381691 57.35297153 145.63769531 67.06201172 C145.98960937 67.6752832 146.34152344 68.28855469 146.70410156 68.92041016 C154.67337706 83.10189764 159.77872171 98.8865271 161.63769531 115.06201172 C161.74726562 115.86380859 161.85683594 116.66560547 161.96972656 117.49169922 C166.10442329 152.88470323 158.91310761 191.14667389 136.51269531 219.56201172 C108.65401384 252.00805755 72.13432873 268.30581766 29.63769531 272.06201172 C26.61244977 272.20781493 23.59193972 272.24808161 20.56347656 272.26513672 C19.72537445 272.27215103 18.88727234 272.27916534 18.02377319 272.28639221 C15.3325253 272.30380319 12.64149747 272.31024481 9.95019531 272.31201172 C9.03074127 272.31268646 8.11128723 272.31336121 7.16397095 272.3140564 C-6.55053598 272.29805382 -19.896526 271.89515132 -33.36230469 269.06201172 C-34.18811035 268.89572266 -35.01391602 268.72943359 -35.86474609 268.55810547 C-69.98132547 261.49815036 -102.87985244 243.46118748 -122.85717773 214.16479492 C-131.33243377 201.20748515 -137.56543256 187.0618641 -141.36230469 172.06201172 C-141.68199219 170.82837891 -142.00167969 169.59474609 -142.33105469 168.32373047 C-144.71927676 157.68082633 -144.6776675 146.85208993 -144.73730469 135.99951172 C-144.74525055 135.24150269 -144.75319641 134.48349365 -144.76138306 133.70251465 C-145.03019672 100.26480608 -133.84476537 68.24777405 -110.36230469 44.06201172 C-109.57726563 43.19189453 -108.79222656 42.32177734 -107.98339844 41.42529297 C-82.44524905 14.09362469 -42.47347551 1.96174901 -6.01074219 0.15185547 C-4.00712955 0.10251597 -2.00352985 0.05259369 0 0 Z M-60.36230469 73.06201172 C-78.64889896 96.04420676 -82.90207303 124.303346 -80.07373047 152.98876953 C-77.94661049 168.81225798 -72.40341227 183.53324234 -62.36230469 196.06201172 C-61.56566406 197.10228516 -61.56566406 197.10228516 -60.75292969 198.16357422 C-47.7211345 214.23612161 -26.60239451 222.24526541 -6.57714844 224.74560547 C21.11628261 227.16541983 47.95208732 224.35473648 70.43847656 206.88623047 C88.50827736 191.61562426 96.13923049 168.93917167 98.32519531 145.97998047 C100.37019297 120.34082237 94.98466698 93.39230303 77.94628906 73.39794922 C60.25790952 55.50006264 36.5638499 47.85766786 11.76147461 47.68188477 C10.34521388 47.68145371 8.92895098 47.68320019 7.51269531 47.68701172 C6.78635895 47.68722321 6.06002258 47.68743469 5.31167603 47.68765259 C-19.64182102 47.76010698 -42.75867291 54.29238817 -60.36230469 73.06201172 Z " fill="#3F3F3F" transform="translate(1602.3623046875,161.93798828125)"/>
<path d="M0 0 C0 83.49 0 166.98 0 253 C-39.105 265.87 -39.105 265.87 -79 279 C-94.12253969 284.04253246 -109.24399959 289.08726166 -124.3515625 294.17431641 C-128.11124798 295.44000854 -131.87234826 296.70141414 -135.63440704 297.96003342 C-137.01129816 298.42164589 -138.3876373 298.8849088 -139.76335907 299.34999466 C-141.60878033 299.97386615 -143.45619233 300.59183988 -145.30371094 301.20947266 C-146.85490631 301.7313768 -146.85490631 301.7313768 -148.43743896 302.26382446 C-151 303 -151 303 -154 303 C-154 219.84 -154 136.68 -154 51 C-147.46250003 48.38500001 -141.02492722 45.91905962 -134.3515625 43.73876953 C-133.44220947 43.43880569 -132.53285645 43.13884186 -131.59594727 42.82978821 C-128.60659873 41.84449744 -125.6158058 40.86366996 -122.625 39.8828125 C-120.49778552 39.18249952 -118.37067169 38.48188075 -116.24365234 37.78097534 C-110.63176186 35.93251011 -105.01867389 34.08770937 -99.40527344 32.24383545 C-90.56638715 29.33973406 -81.72940884 26.42982886 -72.89221191 23.52059174 C-69.63504273 22.44861768 -66.37759269 21.37750034 -63.12011719 20.30645752 C-52.55620761 16.83125963 -41.9984017 13.3389897 -31.453125 9.80761719 C-30.46351776 9.47645086 -29.47391052 9.14528454 -28.45431519 8.80408287 C-23.78923585 7.24243783 -19.12536013 5.6773454 -14.46337891 4.10647583 C-12.82717918 3.55770863 -11.1909505 3.00902774 -9.5546875 2.46044922 C-8.44000092 2.08273188 -8.44000092 2.08273188 -7.30279541 1.69738388 C-2.2267464 0 -2.2267464 0 0 0 Z " fill="#FF7A00" transform="translate(410,24)"/>
<path d="M0 0 C0 83.49 0 166.98 0 253 C-87 282 -87 282 -130 296 C-136.93 298.31 -143.86 300.62 -151 303 C-151.99 303 -152.98 303 -154 303 C-154 219.84 -154 136.68 -154 51 C-128.54697535 42.30872329 -103.09285271 33.64277727 -77.57427979 25.14910889 C-74.46468106 24.11344699 -71.35583546 23.07553413 -68.24695587 22.03771591 C-51.26366254 16.36956692 -34.26247654 10.7587402 -17.234375 5.2265625 C-16.41627602 4.96033459 -15.59817703 4.69410667 -14.75528717 4.41981125 C-12.46467374 3.67485307 -10.17339227 2.93199332 -7.88183594 2.18994141 C-7.19602699 1.96677876 -6.51021805 1.7436161 -5.80362701 1.51369095 C-1.1152531 0 -1.1152531 0 0 0 Z " fill="#FF7A00" transform="translate(410,418)"/>
<path d="M0 0 C20.13 0 40.26 0 61 0 C61 35.31 61 70.62 61 107 C107.2 107 153.4 107 201 107 C201 71.69 201 36.38 201 0 C221.13 0 241.26 0 262 0 C262 86.13 262 172.26 262 261 C241.87 261 221.74 261 201 261 C201 225.69 201 190.38 201 154 C154.8 154 108.6 154 61 154 C61 189.31 61 224.62 61 261 C40.87 261 20.74 261 0 261 C0 174.87 0 88.74 0 0 Z " fill="#3F3F3F" transform="translate(862,168)"/>
<path d="M0 0 C30.03 0 60.06 0 91 0 C100.60631893 25.76240075 110.20558096 51.52711464 119.75 77.3125 C120.15862274 78.41644104 120.56724548 79.52038208 120.98825073 80.65777588 C121.40132477 81.7737616 121.8143988 82.88974731 122.23999023 84.03955078 C123.08576847 86.32454659 123.93155303 88.60954006 124.77734375 90.89453125 C125.41197792 92.60908508 125.41197792 92.60908508 126.05943298 94.35827637 C132.09607025 110.66491119 138.14578361 126.96669912 144.1953125 143.26855469 C145.16277235 145.87564661 146.1302166 148.48274433 147.09765625 151.08984375 C147.45821295 152.06146139 147.45821295 152.06146139 147.82605362 153.05270767 C151.35659328 162.5669715 154.88355216 172.08255703 158.40845299 181.59891129 C159.9460444 185.74964422 161.48423546 189.90015497 163.022439 194.05066109 C164.2344394 197.32115072 165.44605885 200.5917802 166.65664673 203.86279297 C168.00443735 207.50396538 169.35347245 211.14467361 170.703125 214.78515625 C171.13239792 215.94411407 171.56167084 217.1030719 172.00395203 218.29714966 C174.34162234 224.59229074 176.70995091 230.87450495 179.11523438 237.14404297 C179.37213924 237.81514194 179.62904411 238.4862409 179.89373398 239.1776762 C181.13506104 242.42026309 182.38094363 245.66092876 183.63604736 248.89820862 C184.07680603 250.0474028 184.5175647 251.19659698 184.97167969 252.38061523 C185.36409851 253.39566635 185.75651733 254.41071747 186.16082764 255.45652771 C187 258 187 258 187 261 C166.21 261 145.42 261 124 261 C120.865 252.646875 117.73 244.29375 114.5 235.6875 C113.50806641 233.05225342 112.51613281 230.41700684 111.49414062 227.7019043 C110.71445422 225.61782147 109.9351322 223.53360227 109.15625 221.44921875 C108.74600586 220.36338501 108.33576172 219.27755127 107.91308594 218.15881348 C107.52733398 217.12373657 107.14158203 216.08865967 106.74414062 215.0222168 C106.40660767 214.12286911 106.06907471 213.22352142 105.72131348 212.29692078 C105 210 105 210 105 207 C65.73 207 26.46 207 -14 207 C-14.99 210.3 -15.98 213.6 -17 217 C-17.58351491 218.73149918 -18.18208133 220.45817452 -18.80932617 222.17431641 C-19.13380737 223.06642822 -19.45828857 223.95854004 -19.79260254 224.87768555 C-20.12272339 225.77656494 -20.45284424 226.67544434 -20.79296875 227.6015625 C-21.26023376 228.88389771 -21.26023376 228.88389771 -21.73693848 230.19213867 C-22.88401841 233.33756068 -24.03603661 236.48118003 -25.1875 239.625 C-27.765625 246.67875 -30.34375 253.7325 -33 261 C-53.79 261 -74.58 261 -96 261 C-95.33840576 257.69202881 -94.74926322 255.03289896 -93.61499023 251.94995117 C-93.3312001 251.1733313 -93.04740997 250.39671143 -92.75502014 249.59655762 C-92.44269943 248.75387329 -92.13037872 247.91118896 -91.80859375 247.04296875 C-91.47601059 246.13720093 -91.14342743 245.23143311 -90.80076599 244.29821777 C-89.68358226 241.25985826 -88.56066544 238.22365295 -87.4375 235.1875 C-86.63871804 233.01998111 -85.84005563 230.85241817 -85.04150391 228.68481445 C-77.8798731 209.27370172 -70.59818697 189.90772901 -63.31607056 170.54159546 C-56.66609582 152.85454679 -50.09495926 135.14273969 -43.6751709 117.37054443 C-38.23499022 102.31507088 -32.64660754 87.31879746 -27.00473022 72.33782959 C-20.09274026 53.98124865 -13.30758066 35.57974219 -6.57275391 17.1574707 C-6.20550705 16.15403122 -5.83826019 15.15059174 -5.45988464 14.116745 C-4.77154519 12.23556323 -4.0842449 10.35400079 -3.39814758 8.47200012 C-3.095233 7.64415512 -2.79231842 6.81631012 -2.48022461 5.96337891 C-2.21696884 5.24211823 -1.95371307 4.52085754 -1.68247986 3.77774048 C-1 2 -1 2 0 0 Z M44 49 C43.80415817 49.53820877 43.60831635 50.07641754 43.40653992 50.63093567 C40.83645174 57.69252436 38.26256034 64.75272309 35.6875 71.8125 C35.26759796 72.96415649 34.84769592 74.11581299 34.41506958 75.30236816 C29.51750267 88.72881093 24.58941286 102.14288493 19.578125 115.52734375 C19.14381668 116.68808914 18.70950836 117.84883453 18.26203918 119.04475403 C16.17079491 124.63093425 14.07392102 130.21491998 11.96948242 135.79614258 C11.20739546 137.82759018 10.4454263 139.85908197 9.68359375 141.890625 C9.33858826 142.79993271 8.99358276 143.70924042 8.63812256 144.64610291 C8.31853577 145.50055496 7.99894897 146.35500702 7.66967773 147.23535156 C7.39389389 147.96675354 7.11811005 148.69815552 6.83396912 149.45172119 C5.70156005 152.91191409 4.88301906 156.46792376 4 160 C31.39 160 58.78 160 87 160 C78.22231625 136.04243864 78.22231625 136.04243864 69.37890625 112.109375 C68.82126871 110.60679684 68.2636469 109.10421285 67.70603943 107.60162354 C66.56495434 104.52722459 65.42338879 101.45300459 64.28149414 98.37890625 C62.82920458 94.46893571 61.37867534 90.55831445 59.92852879 86.64754868 C58.78919696 83.57582751 57.64871569 80.50453404 56.5079174 77.43335724 C55.97213205 75.99041005 55.43674496 74.54731491 54.90179634 73.10405731 C53.28066485 68.73116256 51.64655447 64.36340654 50 60 C49.61343231 58.96685669 49.22686462 57.93371338 48.82858276 56.8692627 C48.4790152 55.95882202 48.12944763 55.04838135 47.76928711 54.11035156 C47.47259628 53.33129456 47.17590546 52.55223755 46.870224 51.74957275 C46.12532175 49.8119653 46.12532175 49.8119653 44 49 Z " fill="#3F3F3F" transform="translate(1873,168)"/>
<path d="M0 0 C0.83797119 0.00359528 1.67594238 0.00719055 2.53930664 0.01089478 C3.41727402 0.01074875 4.29524139 0.01060272 5.19981384 0.01045227 C8.11630685 0.01115172 11.03273683 0.01894561 13.94921875 0.02676392 C15.96561142 0.02862798 17.98200454 0.03005194 19.99839783 0.03105164 C25.31671388 0.03487772 30.6350028 0.04470878 35.95330811 0.05575562 C41.37576938 0.06596779 46.79823502 0.07054884 52.22070312 0.07559204 C62.86850153 0.08633097 73.51627976 0.10340847 84.1640625 0.12442017 C87.10773154 7.09379289 89.96661857 14.07276014 92.5625 21.17910767 C92.869599 22.01289948 93.176698 22.84669128 93.49310303 23.70574951 C94.15944013 25.51563946 94.82464932 27.325945 95.48883057 29.1366272 C96.96326032 33.15572717 98.44365657 37.17262228 99.92367554 41.18966675 C100.72896937 43.37540251 101.53399659 45.56123651 102.33877563 47.74716187 C107.05827796 60.56272477 111.81079169 73.36603428 116.56338882 86.16934967 C117.78362944 89.45685548 119.00349714 92.74449966 120.22338867 96.03213501 C122.20850593 101.3819639 124.19378541 106.73173257 126.17919922 112.08145142 C130.34810183 123.31467159 134.51625284 134.5481706 138.68392849 145.78184605 C139.88485824 149.01885955 141.08584178 152.25585308 142.28695679 155.49279785 C147.4552376 169.42113016 152.61953556 183.35091643 157.7734375 197.28457642 C158.68009164 199.73509827 159.5867485 202.18561912 160.4934082 204.63613892 C162.17017374 209.16826803 163.84563192 213.70087725 165.52026367 218.23379517 C166.28554855 220.30284108 167.0509269 222.37185244 167.81640625 224.44082642 C168.17933273 225.42358551 168.54225922 226.4063446 168.91618347 227.41888428 C170.74250224 232.3495874 172.59832936 237.26642542 174.50439453 242.16690063 C174.87867081 243.13264511 175.25294708 244.09838959 175.63856506 245.09339905 C176.3467969 246.91496392 177.06068569 248.73434334 177.78123474 250.55107117 C178.09520706 251.35894577 178.40917938 252.16682037 178.73266602 252.99917603 C179.01014175 253.70247543 179.28761749 254.40577484 179.57350159 255.13038635 C180.1640625 257.12442017 180.1640625 257.12442017 180.1640625 261.12442017 C159.7040625 261.12442017 139.2440625 261.12442017 118.1640625 261.12442017 C108.75188778 237.59398336 108.75188778 237.59398336 104.43359375 226.05361938 C103.63946149 223.93374982 102.8393384 221.81619587 102.0390625 219.69863892 C101.52829245 218.33809445 101.01786119 216.97742273 100.5078125 215.61660767 C100.05599609 214.41375122 99.60417969 213.21089478 99.13867188 211.97158813 C98.1640625 209.12442017 98.1640625 209.12442017 98.1640625 207.12442017 C58.8940625 207.12442017 19.6240625 207.12442017 -20.8359375 207.12442017 C-21.4959375 210.09442017 -22.1559375 213.06442017 -22.8359375 216.12442017 C-23.35281175 217.78421382 -23.90532001 219.43400784 -24.51586914 221.06167603 C-24.83282242 221.9154332 -25.1497757 222.76919037 -25.47633362 223.64881897 C-25.81285446 224.5366658 -26.14937531 225.42451263 -26.49609375 226.33926392 C-26.8460289 227.27621597 -27.19596405 228.21316803 -27.5565033 229.17851257 C-28.6649163 232.14176905 -29.78167153 235.10180307 -30.8984375 238.06192017 C-31.65221537 240.07539645 -32.40547557 242.08906661 -33.15820312 244.10293579 C-34.53094893 247.76739259 -35.90401033 251.43171812 -37.28540039 255.09292603 C-37.56138565 255.82522934 -37.83737091 256.55753265 -38.12171936 257.31202698 C-38.8359375 259.12442017 -38.8359375 259.12442017 -39.8359375 261.12442017 C-60.6259375 261.12442017 -81.4159375 261.12442017 -102.8359375 261.12442017 C-95.95635196 240.48566355 -95.95635196 240.48566355 -92.9453125 232.58926392 C-92.60339874 231.68307312 -92.26148499 230.77688232 -91.90921021 229.8432312 C-91.18107826 227.91384224 -90.45153818 225.98498416 -89.72064209 224.05664062 C-87.72733928 218.79590161 -85.74648479 213.5304796 -83.765625 208.26504517 C-83.35696198 207.17914597 -82.94829895 206.09324677 -82.5272522 204.97444153 C-78.19351973 193.44284957 -73.94730367 181.87956133 -69.7109375 170.31192017 C-63.59477942 153.61972407 -57.43810607 136.94360506 -51.22827148 120.28604126 C-50.56361295 118.50301073 -49.89898136 116.71997015 -49.234375 114.93692017 C-48.89513504 114.02681183 -48.55589508 113.11670349 -48.20637512 112.17901611 C-45.21247242 104.14311387 -42.23015533 96.10292818 -39.25 88.06192017 C-39.0068059 87.40574581 -38.76361179 86.74957146 -38.51304817 86.07351303 C-38.01807055 84.73797487 -37.52309483 83.402436 -37.02812099 82.06689644 C-36.78141187 81.40122595 -36.53470274 80.73555546 -36.28051758 80.04971313 C-36.032678 79.38098616 -35.78483843 78.71225918 -35.52948856 78.02326775 C-20.92392435 38.6162159 -20.92392435 38.6162159 -13.93338013 19.91479492 C-13.28992805 18.19250804 -12.64739658 16.46987691 -12.00582886 14.74688721 C-11.14196432 12.42771512 -10.27467013 10.10985824 -9.40625 7.79238892 C-9.1563884 7.11960907 -8.90652679 6.44682922 -8.64909363 5.75366211 C-6.53643576 0.13850279 -6.06691349 0.01099319 0 0 Z M38.1640625 49.12442017 C33.26884272 60.3310775 29.16643285 71.82875407 24.9765625 83.31192017 C24.19248049 85.45524462 23.40813346 87.59847215 22.62353516 89.74160767 C21.3997414 93.08463366 20.17619244 96.42774752 18.95367432 99.77124023 C15.97362877 107.92038609 12.98025063 116.06455192 9.98046875 124.20645142 C9.14410277 126.4776837 8.30775804 128.74892382 7.47143555 131.02017212 C6.25826434 134.31474228 5.04469081 137.60916093 3.82974243 140.90307617 C2.70793825 143.94506738 1.5881182 146.98778191 0.46875 150.03067017 C-0.03615211 151.39739616 -0.03615211 151.39739616 -0.55125427 152.79173279 C-0.854189 153.61630478 -1.15712372 154.44087677 -1.46923828 155.29043579 C-1.73471466 156.01090088 -2.00019104 156.73136597 -2.27371216 157.47366333 C-2.88967088 158.99154179 -2.88967088 158.99154179 -2.8359375 160.12442017 C24.5540625 160.12442017 51.9440625 160.12442017 80.1640625 160.12442017 C78.39110413 154.21455893 76.67608134 148.57394955 74.51953125 142.83999634 C74.27341599 142.18286148 74.02730072 141.52572662 73.77372742 140.84867859 C72.96948149 138.70372015 72.16058308 136.56055052 71.3515625 134.41738892 C70.77658013 132.88700019 70.20187924 131.35650568 69.62744141 129.82591248 C68.11560042 125.80005359 66.59974164 121.77571908 65.08306885 117.75167847 C63.58011575 113.76167089 62.08133227 109.770098 60.58203125 105.77871704 C53.48018629 86.87973145 46.33762355 67.99629481 39.1640625 49.12442017 C38.8340625 49.12442017 38.5040625 49.12442017 38.1640625 49.12442017 Z " fill="#3F3F3F" transform="translate(1264.8359375,167.87557983398438)"/>
<path d="M0 0 C3.2639884 2.84148065 6.08007758 5.78808534 9 9 C9.33 4.38 9.66 -0.24 10 -5 C15.61 -5 21.22 -5 27 -5 C27.04648994 12.17782043 27.08208691 29.35561536 27.10362434 46.53348446 C27.11389464 54.5111958 27.12787274 62.48886711 27.15087891 70.46655273 C27.17094391 77.42772866 27.18374721 84.38887555 27.18817699 91.3500796 C27.19076241 95.02886813 27.19674827 98.70757369 27.21146011 102.38633537 C27.40747744 153.45629566 27.40747744 153.45629566 12.15625 170 C0.31347418 181.26034423 -15.98200613 183.49390244 -31.66772461 183.35131836 C-48.50818892 182.88947285 -61.24025401 177.16234303 -73.40625 165.78125 C-79.82802343 158.89525198 -79.82802343 158.89525198 -80.19140625 154.890625 C-78.23391828 151.78431622 -75.09832304 150.41846964 -71.9375 148.75 C-71.27427734 148.38648438 -70.61105469 148.02296875 -69.92773438 147.6484375 C-68.29154895 146.75383252 -66.64657276 145.87533933 -65 145 C-62.40747551 147.51957467 -60.11007113 150.10154291 -57.875 152.9375 C-51.68626661 160.069152 -42.46640279 163.57093475 -33.16796875 164.30078125 C-21.37972446 164.33548658 -11.09491894 163.24118134 -2 155 C8.4607483 142.18672534 7.40592074 126.59568298 7 111 C6.41734375 111.59167969 5.8346875 112.18335938 5.234375 112.79296875 C-5.36652963 123.01050733 -17.09274973 126.90872594 -31.734375 127.03125 C-46.95637442 126.4099439 -60.55499162 121.5019444 -71.125 110.25 C-85.25965854 93.28840975 -89.60653527 71.56482556 -88 50 C-86.964892 39.70902308 -84.69414858 30.28069491 -80 21 C-79.58105469 20.15179687 -79.16210938 19.30359375 -78.73046875 18.4296875 C-72.5496376 7.06550804 -63.18575016 -1.58791805 -51 -6 C-33.62569175 -11.1032161 -15.47367944 -10.18520672 0 0 Z M-55 18 C-57.31802897 20.50868936 -59.21605128 23.09053159 -61 26 C-61.56654297 26.92232422 -61.56654297 26.92232422 -62.14453125 27.86328125 C-67.33953529 37.26098518 -68.54139747 47.74381803 -68.4375 58.3125 C-68.42992676 59.40119385 -68.42235352 60.4898877 -68.41455078 61.61157227 C-68.11051834 76.5502175 -64.51320042 89.27388387 -54.125 100.375 C-45.36911565 108.67799378 -36.10937477 109.46643672 -24.5 109.27734375 C-19.0373805 109.05011144 -14.70834438 107.79694945 -10 105 C-9.29746094 104.59910156 -8.59492187 104.19820312 -7.87109375 103.78515625 C2.48135087 97.00793918 7.07712891 84.94328636 9.58203125 73.29296875 C11.8239026 55.63037486 10.84221168 35.85069083 0 21 C-6.83238944 13.24963117 -14.55248625 9.36258143 -24.75 8.0625 C-36.23757504 7.4866447 -46.46427124 10.12571148 -55 18 Z " fill="#3F3F3F" transform="translate(1318,523)"/>
<path d="M0 0 C13.71845149 12.68060441 19.88383437 30.24784062 20.96484375 48.625 C20.96484375 52.585 20.96484375 56.545 20.96484375 60.625 C-12.03515625 60.625 -45.03515625 60.625 -79.03515625 60.625 C-76.90386775 75.5440195 -74.16831894 87.99757058 -62.47265625 97.875 C-53.50398924 104.11555537 -42.7193438 105.72934317 -32.03515625 104.625 C-20.95470455 102.60641181 -10.66558928 98.20747833 -4.04296875 88.79296875 C-2.32279898 86.10218111 -0.67335013 83.36646731 0.96484375 80.625 C6.57484375 82.605 12.18484375 84.585 17.96484375 86.625 C15.77661327 97.56615239 7.91396525 106.62219603 -1.19921875 112.75390625 C-17.83438831 123.03789251 -35.92131129 125.88018811 -55.03515625 121.625 C-70.24946485 117.4355527 -82.37680394 108.5648946 -90.41015625 94.875 C-101.19388182 75.54808196 -101.76803973 50.67614813 -96.03515625 29.625 C-93.47807028 21.88120065 -89.931804 15.13288402 -85.03515625 8.625 C-84.36033203 7.70267578 -84.36033203 7.70267578 -83.671875 6.76171875 C-74.73149021 -4.59634756 -60.93863669 -10.19016062 -46.91796875 -12.09375 C-30.08694278 -13.73580131 -13.53364633 -10.59003471 0 0 Z M-68.28515625 16.75 C-75.07866353 24.89679558 -79.03515625 34.99979432 -79.03515625 45.625 C-52.63515625 45.625 -26.23515625 45.625 0.96484375 45.625 C0.96484375 33.58681855 -2.67017323 23.52497082 -10.84765625 14.66015625 C-19.05141362 6.83681505 -29.13897737 4.25967577 -40.2578125 4.41015625 C-51.11838922 5.25028525 -60.71341965 8.83923042 -68.28515625 16.75 Z " fill="#3F3F3F" transform="translate(1135.03515625,526.375)"/>
<path d="M0 0 C13.24898424 11.15072882 20.39812666 27.90812296 22.15234375 44.9296875 C23.58059999 65.79464823 20.97935722 85.77147468 8.15234375 102.9296875 C7.54712891 103.81720703 7.54712891 103.81720703 6.9296875 104.72265625 C-0.69561709 114.91304801 -13.66675003 120.75546123 -25.84765625 122.9296875 C-44.90304502 125.45782819 -62.18148471 122.42801998 -77.84765625 110.9296875 C-90.13070099 101.23511739 -96.67336309 85.05933727 -98.84765625 69.9296875 C-100.15840899 46.93456469 -99.21025309 24.65428196 -83.41015625 6.4296875 C-61.50461736 -16.14077499 -25.2975929 -18.39193997 0 0 Z M-69.58984375 19.03125 C-79.80837838 33.41854005 -81.80533626 51.07139822 -79.54296875 68.2421875 C-78.00429051 77.03463456 -75.0991521 84.64395836 -69.84765625 91.9296875 C-69.27015625 92.8371875 -68.69265625 93.7446875 -68.09765625 94.6796875 C-60.07790829 102.69943546 -49.76772212 106.01410888 -38.66015625 106.1796875 C-27.17717164 106.04905059 -18.44621779 102.87637502 -9.91015625 95.18359375 C1.10992943 83.75975493 3.19958971 67.11588986 3.15234375 51.9296875 C2.6540483 38.69647429 -1.1542734 26.13794596 -10.28515625 16.3046875 C-19.5927773 7.67811189 -29.49371138 5.14672638 -42.13671875 5.55078125 C-53.20673131 6.6810878 -62.40024405 10.35859386 -69.58984375 19.03125 Z " fill="#3F3F3F" transform="translate(1860.84765625,526.0703125)"/>
<path d="M0 0 C5.45828511 5.20059783 9.82353182 12.31104 11.5 19.6875 C11.5 21.6675 11.5 23.6475 11.5 25.6875 C5.56 26.6775 -0.38 27.6675 -6.5 28.6875 C-7.056875 27.16125 -7.61375 25.635 -8.1875 24.0625 C-11.59404811 15.67624093 -16.32914603 11.28216586 -24.5 7.6875 C-35.729097 3.36196186 -48.34770767 2.87267268 -59.5 7.6875 C-63.78801152 10.06972862 -66.92092508 12.48456309 -69.5 16.6875 C-70.79086938 22.02309344 -70.81782032 24.84519305 -68.54353333 29.9788208 C-66.75756354 32.90316385 -64.31746393 33.91411361 -61.2734375 35.33984375 C-60.65769867 35.62850815 -60.04195984 35.91717255 -59.40756226 36.21458435 C-53.17377708 39.0314573 -46.70658948 40.95606072 -40.10723877 42.71884155 C-36.7077045 43.62977689 -33.32337721 44.59445732 -29.9375 45.5546875 C-29.28254547 45.7395018 -28.62759094 45.9243161 -27.95278931 46.11473083 C-13.3814296 50.2517893 0.36120064 54.87755901 9.5 67.6875 C13.78225251 76.25200501 13.21198779 87.71500309 10.5 96.6875 C5.98828456 107.65957061 -1.48030474 113.06835783 -11.8046875 118.20703125 C-28.08618881 124.72995831 -51.36785894 124.50019616 -67.5 117.6875 C-79.87767656 112.06535053 -87.76407606 104.00679409 -92.72265625 91.3515625 C-93.5 88.6875 -93.5 88.6875 -93.5 84.6875 C-87.1753842 82.8975144 -81.0508985 82.14509953 -74.5 81.6875 C-74.231875 82.32816406 -73.96375 82.96882812 -73.6875 83.62890625 C-69.62282281 92.6006115 -64.11717931 98.21618055 -54.921875 101.91015625 C-42.57794094 105.87216089 -30.1219366 105.82925731 -18.1875 100.5625 C-13.24663103 97.92115495 -10.62819587 94.84466301 -8.5 89.6875 C-7.02843256 84.62898693 -7.67852872 80.84707012 -9.02734375 75.8984375 C-13.49372202 69.19294651 -22.47304529 67.05366522 -29.75 64.75 C-30.80123047 64.40646484 -31.85246094 64.06292969 -32.93554688 63.70898438 C-38.76425586 61.82001834 -44.6189435 60.06486197 -50.51391602 58.39624023 C-63.20222948 54.779018 -78.78608826 50.07886295 -86.79296875 38.87890625 C-90.94618426 31.38043866 -90.91185872 21.07068325 -88.76953125 12.90234375 C-87.83653155 10.68218528 -86.78237822 8.72322253 -85.5 6.6875 C-85.16097656 6.07777344 -84.82195313 5.46804688 -84.47265625 4.83984375 C-79.01345927 -3.99978126 -69.20585838 -8.65938761 -59.5 -11.3125 C-38.89851285 -16.15827991 -16.81707223 -13.47276809 0 0 Z " fill="#3F3F3F" transform="translate(949.5,527.3125)"/>
<path d="M0 0 C7.37815802 6.8244501 10.67130218 15.33803559 12.39453125 25.05078125 C8.11301525 26.5994147 4.02386576 27.53230489 -0.48046875 28.17578125 C-2.20910156 28.42714844 -2.20910156 28.42714844 -3.97265625 28.68359375 C-4.84148437 28.80476562 -5.7103125 28.9259375 -6.60546875 29.05078125 C-7.00765625 27.87322266 -7.00765625 27.87322266 -7.41796875 26.671875 C-10.57877925 18.19799159 -13.95467391 12.89801327 -22.1328125 8.77734375 C-33.21960443 4.0758771 -45.55262148 3.44100307 -57.08984375 7 C-61.73724206 8.94122694 -66.07095371 11.61271952 -68.79296875 15.9375 C-70.32949001 19.93393269 -70.19846362 23.85317711 -69.60546875 28.05078125 C-65.99928348 35.26315178 -57.81284515 37.42302315 -50.60546875 40.05078125 C-44.15030496 42.13428355 -37.5613941 43.80375533 -30.99707031 45.50439453 C-22.59897031 47.69688403 -14.67142812 50.18803367 -6.87890625 54.05859375 C-6.23410309 54.37819061 -5.58929993 54.69778748 -4.92495728 55.02706909 C1.13275659 58.18346472 6.2635216 61.74388076 9.20703125 68.11328125 C9.60535156 68.94988281 10.00367187 69.78648437 10.4140625 70.6484375 C14.21684164 79.96600391 13.17051307 90.87286102 9.39453125 100.05078125 C3.91173591 110.31802131 -4.69985097 116.34825669 -15.60546875 120.05078125 C-22.98507347 122.24822393 -30.19806641 122.38467064 -37.85546875 122.36328125 C-38.99371094 122.37939453 -40.13195313 122.39550781 -41.3046875 122.41210938 C-55.96854582 122.42043166 -71.07091477 119.05258364 -82.0859375 108.734375 C-87.70138524 102.51263213 -93.60546875 93.68057037 -93.60546875 85.05078125 C-91.18971268 84.5459964 -88.77302514 84.04680483 -86.35546875 83.55078125 C-85.67355469 83.40769531 -84.99164062 83.26460937 -84.2890625 83.1171875 C-80.95913754 82.43827076 -78.02214324 82.05078125 -74.60546875 82.05078125 C-74.33734375 82.69144531 -74.06921875 83.33210937 -73.79296875 83.9921875 C-69.72829156 92.96389275 -64.22264806 98.5794618 -55.02734375 102.2734375 C-43.74596496 105.89439618 -31.15476083 106.62167459 -20.04296875 101.98046875 C-14.44664918 99.05344634 -10.92129858 96.07718986 -8.35546875 90.17578125 C-7.18725438 85.30822137 -7.03208293 81.58986949 -8.79296875 76.86328125 C-15.50761227 66.44400682 -30.73054091 64.30394264 -41.92306519 61.22744751 C-76.68067861 51.61565327 -76.68067861 51.61565327 -85.98046875 40.11328125 C-90.1678825 32.22161687 -90.88368559 23.80658403 -88.953125 15.11328125 C-85.60461454 4.7659528 -78.99519749 -1.75160943 -69.60546875 -6.94921875 C-47.79208431 -18.01978447 -19.35677374 -14.48130449 0 0 Z " fill="#3F3F3F" transform="translate(2049.60546875,526.94921875)"/>
<path d="M0 0 C5.94 0 11.88 0 18 0 C18.01458252 2.09206787 18.02916504 4.18413574 18.04418945 6.33959961 C18.09495781 13.32057302 18.16162114 20.30133316 18.23571491 27.28209591 C18.28008186 31.50664735 18.3194077 35.73110977 18.34643555 39.95581055 C18.37281023 44.04739081 18.41344085 48.13862197 18.46318626 52.22998238 C18.47962787 53.77610428 18.49128113 55.32228623 18.49761391 56.86848259 C18.53459612 65.08263379 18.95570753 73.05430524 20.34057617 81.16235352 C20.45579526 81.84897788 20.57101435 82.53560225 20.68972492 83.24303341 C21.93133627 89.85157797 24.64554064 95.21612717 28 101 C28.35578125 101.74636719 28.7115625 102.49273438 29.078125 103.26171875 C30.33144999 105.62497986 31.55125491 105.94108321 34 107 C35.051875 107.66 36.10375 108.32 37.1875 109 C45.82525646 113.93586083 56.26271701 114.14073351 65.7421875 111.74609375 C74.66881973 108.79628967 81.04592165 103.53987637 85.47265625 95.23828125 C91.04254881 82.81563457 91.31641745 70.02602149 91.4140625 56.640625 C91.43281507 54.99866813 91.45239137 53.35672048 91.4727478 51.71478271 C91.52364386 47.43405647 91.56349447 43.15329913 91.60089111 38.87243652 C91.64120047 34.48779885 91.69216862 30.10328576 91.7421875 25.71875 C91.83844192 17.145913 91.92201732 8.57302269 92 0 C97.94 0 103.88 0 110 0 C110 42.24 110 84.48 110 128 C104.72 128 99.44 128 94 128 C93.505 120.575 93.505 120.575 93 113 C91.80375 114.340625 90.6075 115.68125 89.375 117.0625 C79.75603596 126.68146404 67.19793504 131.13621144 53.75708008 131.38037109 C38.54643416 131.34778426 26.82708736 128.28829183 15.375 117.875 C4.19258805 106.018011 -0.19056074 89.75853626 -0.11352539 73.79150391 C-0.11367142 72.99083496 -0.11381744 72.19016602 -0.1139679 71.36523438 C-0.1132748 68.73564891 -0.10551076 66.1061355 -0.09765625 63.4765625 C-0.09578993 61.64667805 -0.09436704 59.81679309 -0.09336853 57.98690796 C-0.08956023 53.18323372 -0.0797444 48.37958997 -0.06866455 43.57592773 C-0.05841411 38.66911227 -0.05386314 33.76229185 -0.04882812 28.85546875 C-0.03812056 19.23696365 -0.02053747 9.61848914 0 0 Z " fill="#3F3F3F" transform="translate(1431,518)"/>
<path d="M0 0 C1 1 1 1 1.09765625 4.81640625 C1.09098089 6.39846682 1.07901875 7.98051159 1.0625 9.5625 C1.05798828 10.36880859 1.05347656 11.17511719 1.04882812 12.00585938 C1.03700518 14.00393756 1.01906914 16.00197783 1 18 C-0.11117188 17.95359375 -1.22234375 17.9071875 -2.3671875 17.859375 C-13.2903789 17.53618911 -21.51082944 18.1271666 -30.3125 25.25 C-39.51319568 33.98695094 -42.62426043 45.23913308 -43.15821838 57.68907166 C-43.17376266 59.00589432 -43.18930695 60.32271698 -43.20532227 61.67944336 C-43.22017166 62.77825333 -43.22017166 62.77825333 -43.23532104 63.89926147 C-43.26665225 66.29609051 -43.29157991 68.69293929 -43.31640625 71.08984375 C-43.33700036 72.76136256 -43.35799744 74.43287645 -43.37937927 76.10438538 C-43.43434636 80.48548374 -43.48386657 84.86662712 -43.53222656 89.24780273 C-43.58262779 93.72578903 -43.63821627 98.20371066 -43.69335938 102.68164062 C-43.80063034 111.45437368 -43.90166327 120.22716224 -44 129 C-49.94 129 -55.88 129 -62 129 C-62 86.76 -62 44.52 -62 1 C-56.72 1 -51.44 1 -46 1 C-45.505 8.92 -45.505 8.92 -45 17 C-44.236875 15.989375 -43.47375 14.97875 -42.6875 13.9375 C-31.2148176 0.62918842 -16.42108535 -0.90551054 0 0 Z " fill="#3F3F3F" transform="translate(1692,517)"/>
</svg>
